<mxfile host="app.diagrams.net" modified="2023-10-04T07:38:07.678Z" agent="Mozilla/5.0 (Macintosh; Intel Mac OS X 10.15; rv:109.0) Gecko/20100101 Firefox/118.0" etag="IUIIXRENerGTJfGSjuD3" version="22.0.2" type="github">
  <diagram name="第 1 页" id="NqXnLelPpughwOjCauMF">
    <mxGraphModel dx="1242" dy="639" grid="1" gridSize="10" guides="1" tooltips="1" connect="1" arrows="1" fold="1" page="1" pageScale="1" pageWidth="827" pageHeight="1169" math="0" shadow="0">
      <root>
        <mxCell id="0" />
        <mxCell id="1" parent="0" />
        <mxCell id="Bux1jMAlUXkb9F0ZUBIu-1" value="&lt;div&gt;任务执行器&lt;/div&gt;&lt;div&gt;（比如，线程池）&lt;br&gt;&lt;/div&gt;" style="rounded=0;whiteSpace=wrap;html=1;" vertex="1" parent="1">
          <mxGeometry x="310" y="330" width="220" height="50" as="geometry" />
        </mxCell>
        <mxCell id="Bux1jMAlUXkb9F0ZUBIu-3" style="edgeStyle=orthogonalEdgeStyle;rounded=0;orthogonalLoop=1;jettySize=auto;html=1;exitX=0.5;exitY=1;exitDx=0;exitDy=0;" edge="1" parent="1" source="Bux1jMAlUXkb9F0ZUBIu-2" target="Bux1jMAlUXkb9F0ZUBIu-1">
          <mxGeometry relative="1" as="geometry" />
        </mxCell>
        <mxCell id="Bux1jMAlUXkb9F0ZUBIu-7" style="edgeStyle=orthogonalEdgeStyle;rounded=0;orthogonalLoop=1;jettySize=auto;html=1;exitX=1;exitY=0.5;exitDx=0;exitDy=0;dashed=1;" edge="1" parent="1" source="Bux1jMAlUXkb9F0ZUBIu-2" target="Bux1jMAlUXkb9F0ZUBIu-5">
          <mxGeometry relative="1" as="geometry" />
        </mxCell>
        <mxCell id="Bux1jMAlUXkb9F0ZUBIu-2" value="任务" style="ellipse;whiteSpace=wrap;html=1;" vertex="1" parent="1">
          <mxGeometry x="370" y="190" width="100" height="50" as="geometry" />
        </mxCell>
        <mxCell id="Bux1jMAlUXkb9F0ZUBIu-5" value="" style="rounded=0;whiteSpace=wrap;html=1;" vertex="1" parent="1">
          <mxGeometry x="610" y="140" width="120" height="310" as="geometry" />
        </mxCell>
        <mxCell id="Bux1jMAlUXkb9F0ZUBIu-9" value="&lt;div&gt;存储&lt;/div&gt;&lt;div&gt;（data struct）&lt;br&gt;&lt;/div&gt;" style="ellipse;whiteSpace=wrap;html=1;" vertex="1" parent="1">
          <mxGeometry x="620" y="150" width="100" height="50" as="geometry" />
        </mxCell>
        <mxCell id="Bux1jMAlUXkb9F0ZUBIu-10" value="&lt;div&gt;计算&lt;/div&gt;&lt;div&gt;(op or func)&lt;br&gt;&lt;/div&gt;" style="ellipse;whiteSpace=wrap;html=1;" vertex="1" parent="1">
          <mxGeometry x="620" y="210" width="100" height="50" as="geometry" />
        </mxCell>
        <mxCell id="Bux1jMAlUXkb9F0ZUBIu-11" value="控制流" style="ellipse;whiteSpace=wrap;html=1;" vertex="1" parent="1">
          <mxGeometry x="620" y="270" width="100" height="50" as="geometry" />
        </mxCell>
        <mxCell id="Bux1jMAlUXkb9F0ZUBIu-12" value="&lt;div&gt;资源&lt;/div&gt;&lt;div&gt;（线程、io、网络）&lt;br&gt;&lt;/div&gt;" style="ellipse;whiteSpace=wrap;html=1;" vertex="1" parent="1">
          <mxGeometry x="620" y="330" width="100" height="50" as="geometry" />
        </mxCell>
        <mxCell id="Bux1jMAlUXkb9F0ZUBIu-13" value="子任务" style="ellipse;whiteSpace=wrap;html=1;" vertex="1" parent="1">
          <mxGeometry x="620" y="390" width="100" height="50" as="geometry" />
        </mxCell>
      </root>
    </mxGraphModel>
  </diagram>
</mxfile>
